<?xml version="1.0" encoding="utf-8" standalone="no"?>
<!DOCTYPE svg PUBLIC "-//W3C//DTD SVG 1.1//EN"
  "http://www.w3.org/Graphics/SVG/1.1/DTD/svg11.dtd">
<svg xmlns:xlink="http://www.w3.org/1999/xlink" width="792pt" height="360pt" viewBox="0 0 792 360" xmlns="http://www.w3.org/2000/svg" version="1.1">
 <metadata>
  <rdf:RDF xmlns:dc="http://purl.org/dc/elements/1.1/" xmlns:cc="http://creativecommons.org/ns#" xmlns:rdf="http://www.w3.org/1999/02/22-rdf-syntax-ns#">
   <cc:Work>
    <dc:type rdf:resource="http://purl.org/dc/dcmitype/StillImage"/>
    <dc:date>2026-07-02T02:51:40.949794</dc:date>
    <dc:format>image/svg+xml</dc:format>
    <dc:creator>
     <cc:Agent>
      <dc:title>Matplotlib v3.10.7, https://matplotlib.org/</dc:title>
     </cc:Agent>
    </dc:creator>
   </cc:Work>
  </rdf:RDF>
 </metadata>
 <defs>
  <style type="text/css">*{stroke-linejoin: round; stroke-linecap: butt}</style>
 </defs>
 <g id="figure_1">
  <g id="patch_1">
   <path d="M 0 360 
L 792 360 
L 792 0 
L 0 0 
z
" style="fill: #ffffff"/>
  </g>
  <g id="axes_1">
   <g id="patch_2">
    <path d="M 44.57 318.04 
L 781.2 318.04 
L 781.2 26.88 
L 44.57 26.88 
z
" style="fill: #ffffff"/>
   </g>
   <g id="matplotlib.axis_1">
    <g id="xtick_1">
     <g id="line2d_1">
      <defs>
       <path id="ma0596b6d21" d="M 0 0 
L 0 3.5 
" style="stroke: #000000; stroke-width: 0.8"/>
      </defs>
      <g>
       <use xlink:href="#ma0596b6d21" x="78.053182" y="318.04" style="stroke: #000000; stroke-width: 0.8"/>
      </g>
     </g>
     <g id="text_1">
      <!-- 2020 -->
      <g transform="translate(65.328182 332.638438) scale(0.1 -0.1)">
       <defs>
        <path id="DejaVuSans-32" d="M 1228 531 
L 3431 531 
L 3431 0 
L 469 0 
L 469 531 
Q 828 903 1448 1529 
Q 2069 2156 2228 2338 
Q 2531 2678 2651 2914 
Q 2772 3150 2772 3378 
Q 2772 3750 2511 3984 
Q 2250 4219 1831 4219 
Q 1534 4219 1204 4116 
Q 875 4013 500 3803 
L 500 4441 
Q 881 4594 1212 4672 
Q 1544 4750 1819 4750 
Q 2544 4750 2975 4387 
Q 3406 4025 3406 3419 
Q 3406 3131 3298 2873 
Q 3191 2616 2906 2266 
Q 2828 2175 2409 1742 
Q 1991 1309 1228 531 
z
" transform="scale(0.015625)"/>
        <path id="DejaVuSans-30" d="M 2034 4250 
Q 1547 4250 1301 3770 
Q 1056 3291 1056 2328 
Q 1056 1369 1301 889 
Q 1547 409 2034 409 
Q 2525 409 2770 889 
Q 3016 1369 3016 2328 
Q 3016 3291 2770 3770 
Q 2525 4250 2034 4250 
z
M 2034 4750 
Q 2819 4750 3233 4129 
Q 3647 3509 3647 2328 
Q 3647 1150 3233 529 
Q 2819 -91 2034 -91 
Q 1250 -91 836 529 
Q 422 1150 422 2328 
Q 422 3509 836 4129 
Q 1250 4750 2034 4750 
z
" transform="scale(0.015625)"/>
       </defs>
       <use xlink:href="#DejaVuSans-32"/>
       <use xlink:href="#DejaVuSans-30" transform="translate(63.623047 0)"/>
       <use xlink:href="#DejaVuSans-32" transform="translate(127.246094 0)"/>
       <use xlink:href="#DejaVuSans-30" transform="translate(190.869141 0)"/>
      </g>
     </g>
    </g>
    <g id="xtick_2">
     <g id="line2d_2">
      <g>
       <use xlink:href="#ma0596b6d21" x="196.457477" y="318.04" style="stroke: #000000; stroke-width: 0.8"/>
      </g>
     </g>
     <g id="text_2">
      <!-- 2021 -->
      <g transform="translate(183.732477 332.638438) scale(0.1 -0.1)">
       <defs>
        <path id="DejaVuSans-31" d="M 794 531 
L 1825 531 
L 1825 4091 
L 703 3866 
L 703 4441 
L 1819 4666 
L 2450 4666 
L 2450 531 
L 3481 531 
L 3481 0 
L 794 0 
L 794 531 
z
" transform="scale(0.015625)"/>
       </defs>
       <use xlink:href="#DejaVuSans-32"/>
       <use xlink:href="#DejaVuSans-30" transform="translate(63.623047 0)"/>
       <use xlink:href="#DejaVuSans-32" transform="translate(127.246094 0)"/>
       <use xlink:href="#DejaVuSans-31" transform="translate(190.869141 0)"/>
      </g>
     </g>
    </g>
    <g id="xtick_3">
     <g id="line2d_3">
      <g>
       <use xlink:href="#ma0596b6d21" x="314.538263" y="318.04" style="stroke: #000000; stroke-width: 0.8"/>
      </g>
     </g>
     <g id="text_3">
      <!-- 2022 -->
      <g transform="translate(301.813263 332.638438) scale(0.1 -0.1)">
       <use xlink:href="#DejaVuSans-32"/>
       <use xlink:href="#DejaVuSans-30" transform="translate(63.623047 0)"/>
       <use xlink:href="#DejaVuSans-32" transform="translate(127.246094 0)"/>
       <use xlink:href="#DejaVuSans-32" transform="translate(190.869141 0)"/>
      </g>
     </g>
    </g>
    <g id="xtick_4">
     <g id="line2d_4">
      <g>
       <use xlink:href="#ma0596b6d21" x="432.619049" y="318.04" style="stroke: #000000; stroke-width: 0.8"/>
      </g>
     </g>
     <g id="text_4">
      <!-- 2023 -->
      <g transform="translate(419.894049 332.638438) scale(0.1 -0.1)">
       <defs>
        <path id="DejaVuSans-33" d="M 2597 2516 
Q 3050 2419 3304 2112 
Q 3559 1806 3559 1356 
Q 3559 666 3084 287 
Q 2609 -91 1734 -91 
Q 1441 -91 1130 -33 
Q 819 25 488 141 
L 488 750 
Q 750 597 1062 519 
Q 1375 441 1716 441 
Q 2309 441 2620 675 
Q 2931 909 2931 1356 
Q 2931 1769 2642 2001 
Q 2353 2234 1838 2234 
L 1294 2234 
L 1294 2753 
L 1863 2753 
Q 2328 2753 2575 2939 
Q 2822 3125 2822 3475 
Q 2822 3834 2567 4026 
Q 2313 4219 1838 4219 
Q 1578 4219 1281 4162 
Q 984 4106 628 3988 
L 628 4550 
Q 988 4650 1302 4700 
Q 1616 4750 1894 4750 
Q 2613 4750 3031 4423 
Q 3450 4097 3450 3541 
Q 3450 3153 3228 2886 
Q 3006 2619 2597 2516 
z
" transform="scale(0.015625)"/>
       </defs>
       <use xlink:href="#DejaVuSans-32"/>
       <use xlink:href="#DejaVuSans-30" transform="translate(63.623047 0)"/>
       <use xlink:href="#DejaVuSans-32" transform="translate(127.246094 0)"/>
       <use xlink:href="#DejaVuSans-33" transform="translate(190.869141 0)"/>
      </g>
     </g>
    </g>
    <g id="xtick_5">
     <g id="line2d_5">
      <g>
       <use xlink:href="#ma0596b6d21" x="550.699835" y="318.04" style="stroke: #000000; stroke-width: 0.8"/>
      </g>
     </g>
     <g id="text_5">
      <!-- 2024 -->
      <g transform="translate(537.974835 332.638438) scale(0.1 -0.1)">
       <defs>
        <path id="DejaVuSans-34" d="M 2419 4116 
L 825 1625 
L 2419 1625 
L 2419 4116 
z
M 2253 4666 
L 3047 4666 
L 3047 1625 
L 3713 1625 
L 3713 1100 
L 3047 1100 
L 3047 0 
L 2419 0 
L 2419 1100 
L 313 1100 
L 313 1709 
L 2253 4666 
z
" transform="scale(0.015625)"/>
       </defs>
       <use xlink:href="#DejaVuSans-32"/>
       <use xlink:href="#DejaVuSans-30" transform="translate(63.623047 0)"/>
       <use xlink:href="#DejaVuSans-32" transform="translate(127.246094 0)"/>
       <use xlink:href="#DejaVuSans-34" transform="translate(190.869141 0)"/>
      </g>
     </g>
    </g>
    <g id="xtick_6">
     <g id="line2d_6">
      <g>
       <use xlink:href="#ma0596b6d21" x="669.10413" y="318.04" style="stroke: #000000; stroke-width: 0.8"/>
      </g>
     </g>
     <g id="text_6">
      <!-- 2025 -->
      <g transform="translate(656.37913 332.638438) scale(0.1 -0.1)">
       <defs>
        <path id="DejaVuSans-35" d="M 691 4666 
L 3169 4666 
L 3169 4134 
L 1269 4134 
L 1269 2991 
Q 1406 3038 1543 3061 
Q 1681 3084 1819 3084 
Q 2600 3084 3056 2656 
Q 3513 2228 3513 1497 
Q 3513 744 3044 326 
Q 2575 -91 1722 -91 
Q 1428 -91 1123 -41 
Q 819 9 494 109 
L 494 744 
Q 775 591 1075 516 
Q 1375 441 1709 441 
Q 2250 441 2565 725 
Q 2881 1009 2881 1497 
Q 2881 1984 2565 2268 
Q 2250 2553 1709 2553 
Q 1456 2553 1204 2497 
Q 953 2441 691 2322 
L 691 4666 
z
" transform="scale(0.015625)"/>
       </defs>
       <use xlink:href="#DejaVuSans-32"/>
       <use xlink:href="#DejaVuSans-30" transform="translate(63.623047 0)"/>
       <use xlink:href="#DejaVuSans-32" transform="translate(127.246094 0)"/>
       <use xlink:href="#DejaVuSans-35" transform="translate(190.869141 0)"/>
      </g>
     </g>
    </g>
    <g id="text_7">
     <!-- Month -->
     <g transform="translate(397.213906 346.316563) scale(0.1 -0.1)">
      <defs>
       <path id="DejaVuSans-4d" d="M 628 4666 
L 1569 4666 
L 2759 1491 
L 3956 4666 
L 4897 4666 
L 4897 0 
L 4281 0 
L 4281 4097 
L 3078 897 
L 2444 897 
L 1241 4097 
L 1241 0 
L 628 0 
L 628 4666 
z
" transform="scale(0.015625)"/>
       <path id="DejaVuSans-6f" d="M 1959 3097 
Q 1497 3097 1228 2736 
Q 959 2375 959 1747 
Q 959 1119 1226 758 
Q 1494 397 1959 397 
Q 2419 397 2687 759 
Q 2956 1122 2956 1747 
Q 2956 2369 2687 2733 
Q 2419 3097 1959 3097 
z
M 1959 3584 
Q 2709 3584 3137 3096 
Q 3566 2609 3566 1747 
Q 3566 888 3137 398 
Q 2709 -91 1959 -91 
Q 1206 -91 779 398 
Q 353 888 353 1747 
Q 353 2609 779 3096 
Q 1206 3584 1959 3584 
z
" transform="scale(0.015625)"/>
       <path id="DejaVuSans-6e" d="M 3513 2113 
L 3513 0 
L 2938 0 
L 2938 2094 
Q 2938 2591 2744 2837 
Q 2550 3084 2163 3084 
Q 1697 3084 1428 2787 
Q 1159 2491 1159 1978 
L 1159 0 
L 581 0 
L 581 3500 
L 1159 3500 
L 1159 2956 
Q 1366 3272 1645 3428 
Q 1925 3584 2291 3584 
Q 2894 3584 3203 3211 
Q 3513 2838 3513 2113 
z
" transform="scale(0.015625)"/>
       <path id="DejaVuSans-74" d="M 1172 4494 
L 1172 3500 
L 2356 3500 
L 2356 3053 
L 1172 3053 
L 1172 1153 
Q 1172 725 1289 603 
Q 1406 481 1766 481 
L 2356 481 
L 2356 0 
L 1766 0 
Q 1100 0 847 248 
Q 594 497 594 1153 
L 594 3053 
L 172 3053 
L 172 3500 
L 594 3500 
L 594 4494 
L 1172 4494 
z
" transform="scale(0.015625)"/>
       <path id="DejaVuSans-68" d="M 3513 2113 
L 3513 0 
L 2938 0 
L 2938 2094 
Q 2938 2591 2744 2837 
Q 2550 3084 2163 3084 
Q 1697 3084 1428 2787 
Q 1159 2491 1159 1978 
L 1159 0 
L 581 0 
L 581 4863 
L 1159 4863 
L 1159 2956 
Q 1366 3272 1645 3428 
Q 1925 3584 2291 3584 
Q 2894 3584 3203 3211 
Q 3513 2838 3513 2113 
z
" transform="scale(0.015625)"/>
      </defs>
      <use xlink:href="#DejaVuSans-4d"/>
      <use xlink:href="#DejaVuSans-6f" transform="translate(86.279297 0)"/>
      <use xlink:href="#DejaVuSans-6e" transform="translate(147.460938 0)"/>
      <use xlink:href="#DejaVuSans-74" transform="translate(210.839844 0)"/>
      <use xlink:href="#DejaVuSans-68" transform="translate(250.048828 0)"/>
     </g>
    </g>
   </g>
   <g id="matplotlib.axis_2">
    <g id="ytick_1">
     <g id="line2d_7">
      <defs>
       <path id="m9c6a817321" d="M 0 0 
L -3.5 0 
" style="stroke: #000000; stroke-width: 0.8"/>
      </defs>
      <g>
       <use xlink:href="#m9c6a817321" x="44.57" y="304.805455" style="stroke: #000000; stroke-width: 0.8"/>
      </g>
     </g>
     <g id="text_8">
      <!-- 0 -->
      <g transform="translate(31.2075 308.604673) scale(0.1 -0.1)">
       <use xlink:href="#DejaVuSans-30"/>
      </g>
     </g>
    </g>
    <g id="ytick_2">
     <g id="line2d_8">
      <g>
       <use xlink:href="#m9c6a817321" x="44.57" y="249.661515" style="stroke: #000000; stroke-width: 0.8"/>
      </g>
     </g>
     <g id="text_9">
      <!-- 10 -->
      <g transform="translate(24.845 253.460734) scale(0.1 -0.1)">
       <use xlink:href="#DejaVuSans-31"/>
       <use xlink:href="#DejaVuSans-30" transform="translate(63.623047 0)"/>
      </g>
     </g>
    </g>
    <g id="ytick_3">
     <g id="line2d_9">
      <g>
       <use xlink:href="#m9c6a817321" x="44.57" y="194.517576" style="stroke: #000000; stroke-width: 0.8"/>
      </g>
     </g>
     <g id="text_10">
      <!-- 20 -->
      <g transform="translate(24.845 198.316795) scale(0.1 -0.1)">
       <use xlink:href="#DejaVuSans-32"/>
       <use xlink:href="#DejaVuSans-30" transform="translate(63.623047 0)"/>
      </g>
     </g>
    </g>
    <g id="ytick_4">
     <g id="line2d_10">
      <g>
       <use xlink:href="#m9c6a817321" x="44.57" y="139.373636" style="stroke: #000000; stroke-width: 0.8"/>
      </g>
     </g>
     <g id="text_11">
      <!-- 30 -->
      <g transform="translate(24.845 143.172855) scale(0.1 -0.1)">
       <use xlink:href="#DejaVuSans-33"/>
       <use xlink:href="#DejaVuSans-30" transform="translate(63.623047 0)"/>
      </g>
     </g>
    </g>
    <g id="ytick_5">
     <g id="line2d_11">
      <g>
       <use xlink:href="#m9c6a817321" x="44.57" y="84.229697" style="stroke: #000000; stroke-width: 0.8"/>
      </g>
     </g>
     <g id="text_12">
      <!-- 40 -->
      <g transform="translate(24.845 88.028916) scale(0.1 -0.1)">
       <use xlink:href="#DejaVuSans-34"/>
       <use xlink:href="#DejaVuSans-30" transform="translate(63.623047 0)"/>
      </g>
     </g>
    </g>
    <g id="ytick_6">
     <g id="line2d_12">
      <g>
       <use xlink:href="#m9c6a817321" x="44.57" y="29.085758" style="stroke: #000000; stroke-width: 0.8"/>
      </g>
     </g>
     <g id="text_13">
      <!-- 50 -->
      <g transform="translate(24.845 32.884976) scale(0.1 -0.1)">
       <use xlink:href="#DejaVuSans-35"/>
       <use xlink:href="#DejaVuSans-30" transform="translate(63.623047 0)"/>
      </g>
     </g>
    </g>
    <g id="text_14">
     <!-- Count -->
     <g transform="translate(18.765313 187.308437) rotate(-90) scale(0.1 -0.1)">
      <defs>
       <path id="DejaVuSans-43" d="M 4122 4306 
L 4122 3641 
Q 3803 3938 3442 4084 
Q 3081 4231 2675 4231 
Q 1875 4231 1450 3742 
Q 1025 3253 1025 2328 
Q 1025 1406 1450 917 
Q 1875 428 2675 428 
Q 3081 428 3442 575 
Q 3803 722 4122 1019 
L 4122 359 
Q 3791 134 3420 21 
Q 3050 -91 2638 -91 
Q 1578 -91 968 557 
Q 359 1206 359 2328 
Q 359 3453 968 4101 
Q 1578 4750 2638 4750 
Q 3056 4750 3426 4639 
Q 3797 4528 4122 4306 
z
" transform="scale(0.015625)"/>
       <path id="DejaVuSans-75" d="M 544 1381 
L 544 3500 
L 1119 3500 
L 1119 1403 
Q 1119 906 1312 657 
Q 1506 409 1894 409 
Q 2359 409 2629 706 
Q 2900 1003 2900 1516 
L 2900 3500 
L 3475 3500 
L 3475 0 
L 2900 0 
L 2900 538 
Q 2691 219 2414 64 
Q 2138 -91 1772 -91 
Q 1169 -91 856 284 
Q 544 659 544 1381 
z
M 1991 3584 
L 1991 3584 
z
" transform="scale(0.015625)"/>
      </defs>
      <use xlink:href="#DejaVuSans-43"/>
      <use xlink:href="#DejaVuSans-6f" transform="translate(69.824219 0)"/>
      <use xlink:href="#DejaVuSans-75" transform="translate(131.005859 0)"/>
      <use xlink:href="#DejaVuSans-6e" transform="translate(194.384766 0)"/>
      <use xlink:href="#DejaVuSans-74" transform="translate(257.763672 0)"/>
     </g>
    </g>
   </g>
   <g id="line2d_13">
    <path d="M 78.053182 62.172121 
L 88.081961 227.603939 
L 97.463722 89.744091 
L 107.492501 233.118333 
L 117.197771 183.488788 
L 127.22655 244.147121 
L 136.93182 249.661515 
L 146.960599 266.204697 
L 156.989379 255.175909 
L 166.694649 211.060758 
L 176.723428 244.147121 
L 186.428698 189.003182 
L 196.457477 260.690303 
L 206.486256 244.147121 
L 215.544508 255.175909 
L 225.573287 194.517576 
L 235.278557 194.517576 
L 245.307336 288.262273 
L 255.012606 271.719091 
L 265.041386 200.03197 
L 275.070165 183.488788 
L 284.775435 249.661515 
L 294.804214 211.060758 
L 304.509484 95.258485 
L 314.538263 249.661515 
L 324.567042 260.690303 
L 333.625294 111.801667 
L 343.654073 117.316061 
L 353.359343 155.916818 
L 363.388123 200.03197 
L 373.093393 205.546364 
L 383.122172 233.118333 
L 393.150951 249.661515 
L 402.856221 183.488788 
L 412.885 177.974394 
L 422.59027 117.316061 
L 432.619049 89.744091 
L 442.647828 166.945606 
L 451.70608 166.945606 
L 461.734859 233.118333 
L 471.44013 40.114545 
L 481.468909 139.373636 
L 491.174179 166.945606 
L 501.202958 183.488788 
L 511.231737 166.945606 
L 520.937007 161.431212 
L 530.965786 249.661515 
L 540.671056 238.632727 
L 550.699835 95.258485 
L 560.728614 111.801667 
L 570.110375 144.88803 
L 580.139155 205.546364 
L 589.844425 266.204697 
L 599.873204 233.118333 
L 609.578474 233.118333 
L 619.607253 233.118333 
L 629.636032 205.546364 
L 639.341302 144.88803 
L 649.370081 244.147121 
L 659.075351 277.233485 
L 669.10413 266.204697 
L 679.13291 244.147121 
L 688.191162 194.517576 
L 698.219941 244.147121 
L 707.925211 189.003182 
L 717.95399 271.719091 
L 727.65926 244.147121 
L 737.688039 271.719091 
L 747.716818 255.175909 
" clip-path="url(#p0ae4126eea)" style="fill: none; stroke: #a55a3b; stroke-width: 1.5; stroke-linecap: square"/>
    <defs>
     <path id="mee370d820a" d="M 0 1.5 
C 0.397805 1.5 0.77937 1.341951 1.06066 1.06066 
C 1.341951 0.77937 1.5 0.397805 1.5 0 
C 1.5 -0.397805 1.341951 -0.77937 1.06066 -1.06066 
C 0.77937 -1.341951 0.397805 -1.5 0 -1.5 
C -0.397805 -1.5 -0.77937 -1.341951 -1.06066 -1.06066 
C -1.341951 -0.77937 -1.5 -0.397805 -1.5 0 
C -1.5 0.397805 -1.341951 0.77937 -1.06066 1.06066 
C -0.77937 1.341951 -0.397805 1.5 0 1.5 
z
" style="stroke: #a55a3b"/>
    </defs>
    <g clip-path="url(#p0ae4126eea)">
     <use xlink:href="#mee370d820a" x="78.053182" y="62.172121" style="fill: #a55a3b; stroke: #a55a3b"/>
     <use xlink:href="#mee370d820a" x="88.081961" y="227.603939" style="fill: #a55a3b; stroke: #a55a3b"/>
     <use xlink:href="#mee370d820a" x="97.463722" y="89.744091" style="fill: #a55a3b; stroke: #a55a3b"/>
     <use xlink:href="#mee370d820a" x="107.492501" y="233.118333" style="fill: #a55a3b; stroke: #a55a3b"/>
     <use xlink:href="#mee370d820a" x="117.197771" y="183.488788" style="fill: #a55a3b; stroke: #a55a3b"/>
     <use xlink:href="#mee370d820a" x="127.22655" y="244.147121" style="fill: #a55a3b; stroke: #a55a3b"/>
     <use xlink:href="#mee370d820a" x="136.93182" y="249.661515" style="fill: #a55a3b; stroke: #a55a3b"/>
     <use xlink:href="#mee370d820a" x="146.960599" y="266.204697" style="fill: #a55a3b; stroke: #a55a3b"/>
     <use xlink:href="#mee370d820a" x="156.989379" y="255.175909" style="fill: #a55a3b; stroke: #a55a3b"/>
     <use xlink:href="#mee370d820a" x="166.694649" y="211.060758" style="fill: #a55a3b; stroke: #a55a3b"/>
     <use xlink:href="#mee370d820a" x="176.723428" y="244.147121" style="fill: #a55a3b; stroke: #a55a3b"/>
     <use xlink:href="#mee370d820a" x="186.428698" y="189.003182" style="fill: #a55a3b; stroke: #a55a3b"/>
     <use xlink:href="#mee370d820a" x="196.457477" y="260.690303" style="fill: #a55a3b; stroke: #a55a3b"/>
     <use xlink:href="#mee370d820a" x="206.486256" y="244.147121" style="fill: #a55a3b; stroke: #a55a3b"/>
     <use xlink:href="#mee370d820a" x="215.544508" y="255.175909" style="fill: #a55a3b; stroke: #a55a3b"/>
     <use xlink:href="#mee370d820a" x="225.573287" y="194.517576" style="fill: #a55a3b; stroke: #a55a3b"/>
     <use xlink:href="#mee370d820a" x="235.278557" y="194.517576" style="fill: #a55a3b; stroke: #a55a3b"/>
     <use xlink:href="#mee370d820a" x="245.307336" y="288.262273" style="fill: #a55a3b; stroke: #a55a3b"/>
     <use xlink:href="#mee370d820a" x="255.012606" y="271.719091" style="fill: #a55a3b; stroke: #a55a3b"/>
     <use xlink:href="#mee370d820a" x="265.041386" y="200.03197" style="fill: #a55a3b; stroke: #a55a3b"/>
     <use xlink:href="#mee370d820a" x="275.070165" y="183.488788" style="fill: #a55a3b; stroke: #a55a3b"/>
     <use xlink:href="#mee370d820a" x="284.775435" y="249.661515" style="fill: #a55a3b; stroke: #a55a3b"/>
     <use xlink:href="#mee370d820a" x="294.804214" y="211.060758" style="fill: #a55a3b; stroke: #a55a3b"/>
     <use xlink:href="#mee370d820a" x="304.509484" y="95.258485" style="fill: #a55a3b; stroke: #a55a3b"/>
     <use xlink:href="#mee370d820a" x="314.538263" y="249.661515" style="fill: #a55a3b; stroke: #a55a3b"/>
     <use xlink:href="#mee370d820a" x="324.567042" y="260.690303" style="fill: #a55a3b; stroke: #a55a3b"/>
     <use xlink:href="#mee370d820a" x="333.625294" y="111.801667" style="fill: #a55a3b; stroke: #a55a3b"/>
     <use xlink:href="#mee370d820a" x="343.654073" y="117.316061" style="fill: #a55a3b; stroke: #a55a3b"/>
     <use xlink:href="#mee370d820a" x="353.359343" y="155.916818" style="fill: #a55a3b; stroke: #a55a3b"/>
     <use xlink:href="#mee370d820a" x="363.388123" y="200.03197" style="fill: #a55a3b; stroke: #a55a3b"/>
     <use xlink:href="#mee370d820a" x="373.093393" y="205.546364" style="fill: #a55a3b; stroke: #a55a3b"/>
     <use xlink:href="#mee370d820a" x="383.122172" y="233.118333" style="fill: #a55a3b; stroke: #a55a3b"/>
     <use xlink:href="#mee370d820a" x="393.150951" y="249.661515" style="fill: #a55a3b; stroke: #a55a3b"/>
     <use xlink:href="#mee370d820a" x="402.856221" y="183.488788" style="fill: #a55a3b; stroke: #a55a3b"/>
     <use xlink:href="#mee370d820a" x="412.885" y="177.974394" style="fill: #a55a3b; stroke: #a55a3b"/>
     <use xlink:href="#mee370d820a" x="422.59027" y="117.316061" style="fill: #a55a3b; stroke: #a55a3b"/>
     <use xlink:href="#mee370d820a" x="432.619049" y="89.744091" style="fill: #a55a3b; stroke: #a55a3b"/>
     <use xlink:href="#mee370d820a" x="442.647828" y="166.945606" style="fill: #a55a3b; stroke: #a55a3b"/>
     <use xlink:href="#mee370d820a" x="451.70608" y="166.945606" style="fill: #a55a3b; stroke: #a55a3b"/>
     <use xlink:href="#mee370d820a" x="461.734859" y="233.118333" style="fill: #a55a3b; stroke: #a55a3b"/>
     <use xlink:href="#mee370d820a" x="471.44013" y="40.114545" style="fill: #a55a3b; stroke: #a55a3b"/>
     <use xlink:href="#mee370d820a" x="481.468909" y="139.373636" style="fill: #a55a3b; stroke: #a55a3b"/>
     <use xlink:href="#mee370d820a" x="491.174179" y="166.945606" style="fill: #a55a3b; stroke: #a55a3b"/>
     <use xlink:href="#mee370d820a" x="501.202958" y="183.488788" style="fill: #a55a3b; stroke: #a55a3b"/>
     <use xlink:href="#mee370d820a" x="511.231737" y="166.945606" style="fill: #a55a3b; stroke: #a55a3b"/>
     <use xlink:href="#mee370d820a" x="520.937007" y="161.431212" style="fill: #a55a3b; stroke: #a55a3b"/>
     <use xlink:href="#mee370d820a" x="530.965786" y="249.661515" style="fill: #a55a3b; stroke: #a55a3b"/>
     <use xlink:href="#mee370d820a" x="540.671056" y="238.632727" style="fill: #a55a3b; stroke: #a55a3b"/>
     <use xlink:href="#mee370d820a" x="550.699835" y="95.258485" style="fill: #a55a3b; stroke: #a55a3b"/>
     <use xlink:href="#mee370d820a" x="560.728614" y="111.801667" style="fill: #a55a3b; stroke: #a55a3b"/>
     <use xlink:href="#mee370d820a" x="570.110375" y="144.88803" style="fill: #a55a3b; stroke: #a55a3b"/>
     <use xlink:href="#mee370d820a" x="580.139155" y="205.546364" style="fill: #a55a3b; stroke: #a55a3b"/>
     <use xlink:href="#mee370d820a" x="589.844425" y="266.204697" style="fill: #a55a3b; stroke: #a55a3b"/>
     <use xlink:href="#mee370d820a" x="599.873204" y="233.118333" style="fill: #a55a3b; stroke: #a55a3b"/>
     <use xlink:href="#mee370d820a" x="609.578474" y="233.118333" style="fill: #a55a3b; stroke: #a55a3b"/>
     <use xlink:href="#mee370d820a" x="619.607253" y="233.118333" style="fill: #a55a3b; stroke: #a55a3b"/>
     <use xlink:href="#mee370d820a" x="629.636032" y="205.546364" style="fill: #a55a3b; stroke: #a55a3b"/>
     <use xlink:href="#mee370d820a" x="639.341302" y="144.88803" style="fill: #a55a3b; stroke: #a55a3b"/>
     <use xlink:href="#mee370d820a" x="649.370081" y="244.147121" style="fill: #a55a3b; stroke: #a55a3b"/>
     <use xlink:href="#mee370d820a" x="659.075351" y="277.233485" style="fill: #a55a3b; stroke: #a55a3b"/>
     <use xlink:href="#mee370d820a" x="669.10413" y="266.204697" style="fill: #a55a3b; stroke: #a55a3b"/>
     <use xlink:href="#mee370d820a" x="679.13291" y="244.147121" style="fill: #a55a3b; stroke: #a55a3b"/>
     <use xlink:href="#mee370d820a" x="688.191162" y="194.517576" style="fill: #a55a3b; stroke: #a55a3b"/>
     <use xlink:href="#mee370d820a" x="698.219941" y="244.147121" style="fill: #a55a3b; stroke: #a55a3b"/>
     <use xlink:href="#mee370d820a" x="707.925211" y="189.003182" style="fill: #a55a3b; stroke: #a55a3b"/>
     <use xlink:href="#mee370d820a" x="717.95399" y="271.719091" style="fill: #a55a3b; stroke: #a55a3b"/>
     <use xlink:href="#mee370d820a" x="727.65926" y="244.147121" style="fill: #a55a3b; stroke: #a55a3b"/>
     <use xlink:href="#mee370d820a" x="737.688039" y="271.719091" style="fill: #a55a3b; stroke: #a55a3b"/>
     <use xlink:href="#mee370d820a" x="747.716818" y="255.175909" style="fill: #a55a3b; stroke: #a55a3b"/>
    </g>
   </g>
   <g id="line2d_14">
    <path d="M 78.053182 200.03197 
L 88.081961 293.776667 
L 97.463722 183.488788 
L 107.492501 244.147121 
L 117.197771 238.632727 
L 127.22655 144.88803 
L 136.93182 293.776667 
L 146.960599 205.546364 
L 156.989379 249.661515 
L 166.694649 255.175909 
L 176.723428 288.262273 
L 186.428698 155.916818 
L 196.457477 271.719091 
L 206.486256 293.776667 
L 215.544508 299.291061 
L 225.573287 122.830455 
L 235.278557 111.801667 
L 245.307336 150.402424 
L 255.012606 111.801667 
L 265.041386 260.690303 
L 275.070165 233.118333 
L 284.775435 260.690303 
L 294.804214 288.262273 
L 304.509484 177.974394 
L 314.538263 249.661515 
L 324.567042 299.291061 
L 333.625294 200.03197 
L 343.654073 288.262273 
L 353.359343 172.46 
L 363.388123 205.546364 
L 373.093393 194.517576 
L 383.122172 216.575152 
L 393.150951 244.147121 
L 402.856221 288.262273 
L 412.885 304.805455 
L 422.59027 238.632727 
L 432.619049 222.089545 
L 442.647828 189.003182 
L 451.70608 227.603939 
L 461.734859 155.916818 
L 471.44013 216.575152 
L 481.468909 293.776667 
L 491.174179 211.060758 
L 501.202958 177.974394 
L 511.231737 155.916818 
L 520.937007 249.661515 
L 530.965786 139.373636 
L 540.671056 271.719091 
L 550.699835 255.175909 
L 560.728614 233.118333 
L 570.110375 189.003182 
L 580.139155 111.801667 
L 589.844425 133.859242 
L 599.873204 183.488788 
L 609.578474 51.143333 
L 619.607253 183.488788 
L 629.636032 150.402424 
L 639.341302 128.344848 
L 649.370081 172.46 
L 659.075351 238.632727 
L 669.10413 117.316061 
L 679.13291 244.147121 
L 688.191162 233.118333 
L 698.219941 227.603939 
L 707.925211 144.88803 
L 717.95399 244.147121 
L 727.65926 172.46 
L 737.688039 100.772879 
L 747.716818 183.488788 
" clip-path="url(#p0ae4126eea)" style="fill: none; stroke: #3b6ea5; stroke-width: 1.5; stroke-linecap: square"/>
    <defs>
     <path id="mbbdcf7626d" d="M -1.5 1.5 
L 1.5 1.5 
L 1.5 -1.5 
L -1.5 -1.5 
z
" style="stroke: #3b6ea5; stroke-linejoin: miter"/>
    </defs>
    <g clip-path="url(#p0ae4126eea)">
     <use xlink:href="#mbbdcf7626d" x="78.053182" y="200.03197" style="fill: #3b6ea5; stroke: #3b6ea5; stroke-linejoin: miter"/>
     <use xlink:href="#mbbdcf7626d" x="88.081961" y="293.776667" style="fill: #3b6ea5; stroke: #3b6ea5; stroke-linejoin: miter"/>
     <use xlink:href="#mbbdcf7626d" x="97.463722" y="183.488788" style="fill: #3b6ea5; stroke: #3b6ea5; stroke-linejoin: miter"/>
     <use xlink:href="#mbbdcf7626d" x="107.492501" y="244.147121" style="fill: #3b6ea5; stroke: #3b6ea5; stroke-linejoin: miter"/>
     <use xlink:href="#mbbdcf7626d" x="117.197771" y="238.632727" style="fill: #3b6ea5; stroke: #3b6ea5; stroke-linejoin: miter"/>
     <use xlink:href="#mbbdcf7626d" x="127.22655" y="144.88803" style="fill: #3b6ea5; stroke: #3b6ea5; stroke-linejoin: miter"/>
     <use xlink:href="#mbbdcf7626d" x="136.93182" y="293.776667" style="fill: #3b6ea5; stroke: #3b6ea5; stroke-linejoin: miter"/>
     <use xlink:href="#mbbdcf7626d" x="146.960599" y="205.546364" style="fill: #3b6ea5; stroke: #3b6ea5; stroke-linejoin: miter"/>
     <use xlink:href="#mbbdcf7626d" x="156.989379" y="249.661515" style="fill: #3b6ea5; stroke: #3b6ea5; stroke-linejoin: miter"/>
     <use xlink:href="#mbbdcf7626d" x="166.694649" y="255.175909" style="fill: #3b6ea5; stroke: #3b6ea5; stroke-linejoin: miter"/>
     <use xlink:href="#mbbdcf7626d" x="176.723428" y="288.262273" style="fill: #3b6ea5; stroke: #3b6ea5; stroke-linejoin: miter"/>
     <use xlink:href="#mbbdcf7626d" x="186.428698" y="155.916818" style="fill: #3b6ea5; stroke: #3b6ea5; stroke-linejoin: miter"/>
     <use xlink:href="#mbbdcf7626d" x="196.457477" y="271.719091" style="fill: #3b6ea5; stroke: #3b6ea5; stroke-linejoin: miter"/>
     <use xlink:href="#mbbdcf7626d" x="206.486256" y="293.776667" style="fill: #3b6ea5; stroke: #3b6ea5; stroke-linejoin: miter"/>
     <use xlink:href="#mbbdcf7626d" x="215.544508" y="299.291061" style="fill: #3b6ea5; stroke: #3b6ea5; stroke-linejoin: miter"/>
     <use xlink:href="#mbbdcf7626d" x="225.573287" y="122.830455" style="fill: #3b6ea5; stroke: #3b6ea5; stroke-linejoin: miter"/>
     <use xlink:href="#mbbdcf7626d" x="235.278557" y="111.801667" style="fill: #3b6ea5; stroke: #3b6ea5; stroke-linejoin: miter"/>
     <use xlink:href="#mbbdcf7626d" x="245.307336" y="150.402424" style="fill: #3b6ea5; stroke: #3b6ea5; stroke-linejoin: miter"/>
     <use xlink:href="#mbbdcf7626d" x="255.012606" y="111.801667" style="fill: #3b6ea5; stroke: #3b6ea5; stroke-linejoin: miter"/>
     <use xlink:href="#mbbdcf7626d" x="265.041386" y="260.690303" style="fill: #3b6ea5; stroke: #3b6ea5; stroke-linejoin: miter"/>
     <use xlink:href="#mbbdcf7626d" x="275.070165" y="233.118333" style="fill: #3b6ea5; stroke: #3b6ea5; stroke-linejoin: miter"/>
     <use xlink:href="#mbbdcf7626d" x="284.775435" y="260.690303" style="fill: #3b6ea5; stroke: #3b6ea5; stroke-linejoin: miter"/>
     <use xlink:href="#mbbdcf7626d" x="294.804214" y="288.262273" style="fill: #3b6ea5; stroke: #3b6ea5; stroke-linejoin: miter"/>
     <use xlink:href="#mbbdcf7626d" x="304.509484" y="177.974394" style="fill: #3b6ea5; stroke: #3b6ea5; stroke-linejoin: miter"/>
     <use xlink:href="#mbbdcf7626d" x="314.538263" y="249.661515" style="fill: #3b6ea5; stroke: #3b6ea5; stroke-linejoin: miter"/>
     <use xlink:href="#mbbdcf7626d" x="324.567042" y="299.291061" style="fill: #3b6ea5; stroke: #3b6ea5; stroke-linejoin: miter"/>
     <use xlink:href="#mbbdcf7626d" x="333.625294" y="200.03197" style="fill: #3b6ea5; stroke: #3b6ea5; stroke-linejoin: miter"/>
     <use xlink:href="#mbbdcf7626d" x="343.654073" y="288.262273" style="fill: #3b6ea5; stroke: #3b6ea5; stroke-linejoin: miter"/>
     <use xlink:href="#mbbdcf7626d" x="353.359343" y="172.46" style="fill: #3b6ea5; stroke: #3b6ea5; stroke-linejoin: miter"/>
     <use xlink:href="#mbbdcf7626d" x="363.388123" y="205.546364" style="fill: #3b6ea5; stroke: #3b6ea5; stroke-linejoin: miter"/>
     <use xlink:href="#mbbdcf7626d" x="373.093393" y="194.517576" style="fill: #3b6ea5; stroke: #3b6ea5; stroke-linejoin: miter"/>
     <use xlink:href="#mbbdcf7626d" x="383.122172" y="216.575152" style="fill: #3b6ea5; stroke: #3b6ea5; stroke-linejoin: miter"/>
     <use xlink:href="#mbbdcf7626d" x="393.150951" y="244.147121" style="fill: #3b6ea5; stroke: #3b6ea5; stroke-linejoin: miter"/>
     <use xlink:href="#mbbdcf7626d" x="402.856221" y="288.262273" style="fill: #3b6ea5; stroke: #3b6ea5; stroke-linejoin: miter"/>
     <use xlink:href="#mbbdcf7626d" x="412.885" y="304.805455" style="fill: #3b6ea5; stroke: #3b6ea5; stroke-linejoin: miter"/>
     <use xlink:href="#mbbdcf7626d" x="422.59027" y="238.632727" style="fill: #3b6ea5; stroke: #3b6ea5; stroke-linejoin: miter"/>
     <use xlink:href="#mbbdcf7626d" x="432.619049" y="222.089545" style="fill: #3b6ea5; stroke: #3b6ea5; stroke-linejoin: miter"/>
     <use xlink:href="#mbbdcf7626d" x="442.647828" y="189.003182" style="fill: #3b6ea5; stroke: #3b6ea5; stroke-linejoin: miter"/>
     <use xlink:href="#mbbdcf7626d" x="451.70608" y="227.603939" style="fill: #3b6ea5; stroke: #3b6ea5; stroke-linejoin: miter"/>
     <use xlink:href="#mbbdcf7626d" x="461.734859" y="155.916818" style="fill: #3b6ea5; stroke: #3b6ea5; stroke-linejoin: miter"/>
     <use xlink:href="#mbbdcf7626d" x="471.44013" y="216.575152" style="fill: #3b6ea5; stroke: #3b6ea5; stroke-linejoin: miter"/>
     <use xlink:href="#mbbdcf7626d" x="481.468909" y="293.776667" style="fill: #3b6ea5; stroke: #3b6ea5; stroke-linejoin: miter"/>
     <use xlink:href="#mbbdcf7626d" x="491.174179" y="211.060758" style="fill: #3b6ea5; stroke: #3b6ea5; stroke-linejoin: miter"/>
     <use xlink:href="#mbbdcf7626d" x="501.202958" y="177.974394" style="fill: #3b6ea5; stroke: #3b6ea5; stroke-linejoin: miter"/>
     <use xlink:href="#mbbdcf7626d" x="511.231737" y="155.916818" style="fill: #3b6ea5; stroke: #3b6ea5; stroke-linejoin: miter"/>
     <use xlink:href="#mbbdcf7626d" x="520.937007" y="249.661515" style="fill: #3b6ea5; stroke: #3b6ea5; stroke-linejoin: miter"/>
     <use xlink:href="#mbbdcf7626d" x="530.965786" y="139.373636" style="fill: #3b6ea5; stroke: #3b6ea5; stroke-linejoin: miter"/>
     <use xlink:href="#mbbdcf7626d" x="540.671056" y="271.719091" style="fill: #3b6ea5; stroke: #3b6ea5; stroke-linejoin: miter"/>
     <use xlink:href="#mbbdcf7626d" x="550.699835" y="255.175909" style="fill: #3b6ea5; stroke: #3b6ea5; stroke-linejoin: miter"/>
     <use xlink:href="#mbbdcf7626d" x="560.728614" y="233.118333" style="fill: #3b6ea5; stroke: #3b6ea5; stroke-linejoin: miter"/>
     <use xlink:href="#mbbdcf7626d" x="570.110375" y="189.003182" style="fill: #3b6ea5; stroke: #3b6ea5; stroke-linejoin: miter"/>
     <use xlink:href="#mbbdcf7626d" x="580.139155" y="111.801667" style="fill: #3b6ea5; stroke: #3b6ea5; stroke-linejoin: miter"/>
     <use xlink:href="#mbbdcf7626d" x="589.844425" y="133.859242" style="fill: #3b6ea5; stroke: #3b6ea5; stroke-linejoin: miter"/>
     <use xlink:href="#mbbdcf7626d" x="599.873204" y="183.488788" style="fill: #3b6ea5; stroke: #3b6ea5; stroke-linejoin: miter"/>
     <use xlink:href="#mbbdcf7626d" x="609.578474" y="51.143333" style="fill: #3b6ea5; stroke: #3b6ea5; stroke-linejoin: miter"/>
     <use xlink:href="#mbbdcf7626d" x="619.607253" y="183.488788" style="fill: #3b6ea5; stroke: #3b6ea5; stroke-linejoin: miter"/>
     <use xlink:href="#mbbdcf7626d" x="629.636032" y="150.402424" style="fill: #3b6ea5; stroke: #3b6ea5; stroke-linejoin: miter"/>
     <use xlink:href="#mbbdcf7626d" x="639.341302" y="128.344848" style="fill: #3b6ea5; stroke: #3b6ea5; stroke-linejoin: miter"/>
     <use xlink:href="#mbbdcf7626d" x="649.370081" y="172.46" style="fill: #3b6ea5; stroke: #3b6ea5; stroke-linejoin: miter"/>
     <use xlink:href="#mbbdcf7626d" x="659.075351" y="238.632727" style="fill: #3b6ea5; stroke: #3b6ea5; stroke-linejoin: miter"/>
     <use xlink:href="#mbbdcf7626d" x="669.10413" y="117.316061" style="fill: #3b6ea5; stroke: #3b6ea5; stroke-linejoin: miter"/>
     <use xlink:href="#mbbdcf7626d" x="679.13291" y="244.147121" style="fill: #3b6ea5; stroke: #3b6ea5; stroke-linejoin: miter"/>
     <use xlink:href="#mbbdcf7626d" x="688.191162" y="233.118333" style="fill: #3b6ea5; stroke: #3b6ea5; stroke-linejoin: miter"/>
     <use xlink:href="#mbbdcf7626d" x="698.219941" y="227.603939" style="fill: #3b6ea5; stroke: #3b6ea5; stroke-linejoin: miter"/>
     <use xlink:href="#mbbdcf7626d" x="707.925211" y="144.88803" style="fill: #3b6ea5; stroke: #3b6ea5; stroke-linejoin: miter"/>
     <use xlink:href="#mbbdcf7626d" x="717.95399" y="244.147121" style="fill: #3b6ea5; stroke: #3b6ea5; stroke-linejoin: miter"/>
     <use xlink:href="#mbbdcf7626d" x="727.65926" y="172.46" style="fill: #3b6ea5; stroke: #3b6ea5; stroke-linejoin: miter"/>
     <use xlink:href="#mbbdcf7626d" x="737.688039" y="100.772879" style="fill: #3b6ea5; stroke: #3b6ea5; stroke-linejoin: miter"/>
     <use xlink:href="#mbbdcf7626d" x="747.716818" y="183.488788" style="fill: #3b6ea5; stroke: #3b6ea5; stroke-linejoin: miter"/>
    </g>
   </g>
   <g id="patch_3">
    <path d="M 44.57 318.04 
L 44.57 26.88 
" style="fill: none; stroke: #000000; stroke-width: 0.8; stroke-linejoin: miter; stroke-linecap: square"/>
   </g>
   <g id="patch_4">
    <path d="M 781.2 318.04 
L 781.2 26.88 
" style="fill: none; stroke: #000000; stroke-width: 0.8; stroke-linejoin: miter; stroke-linecap: square"/>
   </g>
   <g id="patch_5">
    <path d="M 44.57 318.04 
L 781.2 318.04 
" style="fill: none; stroke: #000000; stroke-width: 0.8; stroke-linejoin: miter; stroke-linecap: square"/>
   </g>
   <g id="patch_6">
    <path d="M 44.57 26.88 
L 781.2 26.88 
" style="fill: none; stroke: #000000; stroke-width: 0.8; stroke-linejoin: miter; stroke-linecap: square"/>
   </g>
   <g id="text_15">
    <!-- Shortage onsets and offsets by calendar month -->
    <g transform="translate(269.993125 20.88) scale(0.12 -0.12)">
     <defs>
      <path id="DejaVuSans-53" d="M 3425 4513 
L 3425 3897 
Q 3066 4069 2747 4153 
Q 2428 4238 2131 4238 
Q 1616 4238 1336 4038 
Q 1056 3838 1056 3469 
Q 1056 3159 1242 3001 
Q 1428 2844 1947 2747 
L 2328 2669 
Q 3034 2534 3370 2195 
Q 3706 1856 3706 1288 
Q 3706 609 3251 259 
Q 2797 -91 1919 -91 
Q 1588 -91 1214 -16 
Q 841 59 441 206 
L 441 856 
Q 825 641 1194 531 
Q 1563 422 1919 422 
Q 2459 422 2753 634 
Q 3047 847 3047 1241 
Q 3047 1584 2836 1778 
Q 2625 1972 2144 2069 
L 1759 2144 
Q 1053 2284 737 2584 
Q 422 2884 422 3419 
Q 422 4038 858 4394 
Q 1294 4750 2059 4750 
Q 2388 4750 2728 4690 
Q 3069 4631 3425 4513 
z
" transform="scale(0.015625)"/>
      <path id="DejaVuSans-72" d="M 2631 2963 
Q 2534 3019 2420 3045 
Q 2306 3072 2169 3072 
Q 1681 3072 1420 2755 
Q 1159 2438 1159 1844 
L 1159 0 
L 581 0 
L 581 3500 
L 1159 3500 
L 1159 2956 
Q 1341 3275 1631 3429 
Q 1922 3584 2338 3584 
Q 2397 3584 2469 3576 
Q 2541 3569 2628 3553 
L 2631 2963 
z
" transform="scale(0.015625)"/>
      <path id="DejaVuSans-61" d="M 2194 1759 
Q 1497 1759 1228 1600 
Q 959 1441 959 1056 
Q 959 750 1161 570 
Q 1363 391 1709 391 
Q 2188 391 2477 730 
Q 2766 1069 2766 1631 
L 2766 1759 
L 2194 1759 
z
M 3341 1997 
L 3341 0 
L 2766 0 
L 2766 531 
Q 2569 213 2275 61 
Q 1981 -91 1556 -91 
Q 1019 -91 701 211 
Q 384 513 384 1019 
Q 384 1609 779 1909 
Q 1175 2209 1959 2209 
L 2766 2209 
L 2766 2266 
Q 2766 2663 2505 2880 
Q 2244 3097 1772 3097 
Q 1472 3097 1187 3025 
Q 903 2953 641 2809 
L 641 3341 
Q 956 3463 1253 3523 
Q 1550 3584 1831 3584 
Q 2591 3584 2966 3190 
Q 3341 2797 3341 1997 
z
" transform="scale(0.015625)"/>
      <path id="DejaVuSans-67" d="M 2906 1791 
Q 2906 2416 2648 2759 
Q 2391 3103 1925 3103 
Q 1463 3103 1205 2759 
Q 947 2416 947 1791 
Q 947 1169 1205 825 
Q 1463 481 1925 481 
Q 2391 481 2648 825 
Q 2906 1169 2906 1791 
z
M 3481 434 
Q 3481 -459 3084 -895 
Q 2688 -1331 1869 -1331 
Q 1566 -1331 1297 -1286 
Q 1028 -1241 775 -1147 
L 775 -588 
Q 1028 -725 1275 -790 
Q 1522 -856 1778 -856 
Q 2344 -856 2625 -561 
Q 2906 -266 2906 331 
L 2906 616 
Q 2728 306 2450 153 
Q 2172 0 1784 0 
Q 1141 0 747 490 
Q 353 981 353 1791 
Q 353 2603 747 3093 
Q 1141 3584 1784 3584 
Q 2172 3584 2450 3431 
Q 2728 3278 2906 2969 
L 2906 3500 
L 3481 3500 
L 3481 434 
z
" transform="scale(0.015625)"/>
      <path id="DejaVuSans-65" d="M 3597 1894 
L 3597 1613 
L 953 1613 
Q 991 1019 1311 708 
Q 1631 397 2203 397 
Q 2534 397 2845 478 
Q 3156 559 3463 722 
L 3463 178 
Q 3153 47 2828 -22 
Q 2503 -91 2169 -91 
Q 1331 -91 842 396 
Q 353 884 353 1716 
Q 353 2575 817 3079 
Q 1281 3584 2069 3584 
Q 2775 3584 3186 3129 
Q 3597 2675 3597 1894 
z
M 3022 2063 
Q 3016 2534 2758 2815 
Q 2500 3097 2075 3097 
Q 1594 3097 1305 2825 
Q 1016 2553 972 2059 
L 3022 2063 
z
" transform="scale(0.015625)"/>
      <path id="DejaVuSans-20" transform="scale(0.015625)"/>
      <path id="DejaVuSans-73" d="M 2834 3397 
L 2834 2853 
Q 2591 2978 2328 3040 
Q 2066 3103 1784 3103 
Q 1356 3103 1142 2972 
Q 928 2841 928 2578 
Q 928 2378 1081 2264 
Q 1234 2150 1697 2047 
L 1894 2003 
Q 2506 1872 2764 1633 
Q 3022 1394 3022 966 
Q 3022 478 2636 193 
Q 2250 -91 1575 -91 
Q 1294 -91 989 -36 
Q 684 19 347 128 
L 347 722 
Q 666 556 975 473 
Q 1284 391 1588 391 
Q 1994 391 2212 530 
Q 2431 669 2431 922 
Q 2431 1156 2273 1281 
Q 2116 1406 1581 1522 
L 1381 1569 
Q 847 1681 609 1914 
Q 372 2147 372 2553 
Q 372 3047 722 3315 
Q 1072 3584 1716 3584 
Q 2034 3584 2315 3537 
Q 2597 3491 2834 3397 
z
" transform="scale(0.015625)"/>
      <path id="DejaVuSans-64" d="M 2906 2969 
L 2906 4863 
L 3481 4863 
L 3481 0 
L 2906 0 
L 2906 525 
Q 2725 213 2448 61 
Q 2172 -91 1784 -91 
Q 1150 -91 751 415 
Q 353 922 353 1747 
Q 353 2572 751 3078 
Q 1150 3584 1784 3584 
Q 2172 3584 2448 3432 
Q 2725 3281 2906 2969 
z
M 947 1747 
Q 947 1113 1208 752 
Q 1469 391 1925 391 
Q 2381 391 2643 752 
Q 2906 1113 2906 1747 
Q 2906 2381 2643 2742 
Q 2381 3103 1925 3103 
Q 1469 3103 1208 2742 
Q 947 2381 947 1747 
z
" transform="scale(0.015625)"/>
      <path id="DejaVuSans-66" d="M 2375 4863 
L 2375 4384 
L 1825 4384 
Q 1516 4384 1395 4259 
Q 1275 4134 1275 3809 
L 1275 3500 
L 2222 3500 
L 2222 3053 
L 1275 3053 
L 1275 0 
L 697 0 
L 697 3053 
L 147 3053 
L 147 3500 
L 697 3500 
L 697 3744 
Q 697 4328 969 4595 
Q 1241 4863 1831 4863 
L 2375 4863 
z
" transform="scale(0.015625)"/>
      <path id="DejaVuSans-62" d="M 3116 1747 
Q 3116 2381 2855 2742 
Q 2594 3103 2138 3103 
Q 1681 3103 1420 2742 
Q 1159 2381 1159 1747 
Q 1159 1113 1420 752 
Q 1681 391 2138 391 
Q 2594 391 2855 752 
Q 3116 1113 3116 1747 
z
M 1159 2969 
Q 1341 3281 1617 3432 
Q 1894 3584 2278 3584 
Q 2916 3584 3314 3078 
Q 3713 2572 3713 1747 
Q 3713 922 3314 415 
Q 2916 -91 2278 -91 
Q 1894 -91 1617 61 
Q 1341 213 1159 525 
L 1159 0 
L 581 0 
L 581 4863 
L 1159 4863 
L 1159 2969 
z
" transform="scale(0.015625)"/>
      <path id="DejaVuSans-79" d="M 2059 -325 
Q 1816 -950 1584 -1140 
Q 1353 -1331 966 -1331 
L 506 -1331 
L 506 -850 
L 844 -850 
Q 1081 -850 1212 -737 
Q 1344 -625 1503 -206 
L 1606 56 
L 191 3500 
L 800 3500 
L 1894 763 
L 2988 3500 
L 3597 3500 
L 2059 -325 
z
" transform="scale(0.015625)"/>
      <path id="DejaVuSans-63" d="M 3122 3366 
L 3122 2828 
Q 2878 2963 2633 3030 
Q 2388 3097 2138 3097 
Q 1578 3097 1268 2742 
Q 959 2388 959 1747 
Q 959 1106 1268 751 
Q 1578 397 2138 397 
Q 2388 397 2633 464 
Q 2878 531 3122 666 
L 3122 134 
Q 2881 22 2623 -34 
Q 2366 -91 2075 -91 
Q 1284 -91 818 406 
Q 353 903 353 1747 
Q 353 2603 823 3093 
Q 1294 3584 2113 3584 
Q 2378 3584 2631 3529 
Q 2884 3475 3122 3366 
z
" transform="scale(0.015625)"/>
      <path id="DejaVuSans-6c" d="M 603 4863 
L 1178 4863 
L 1178 0 
L 603 0 
L 603 4863 
z
" transform="scale(0.015625)"/>
      <path id="DejaVuSans-6d" d="M 3328 2828 
Q 3544 3216 3844 3400 
Q 4144 3584 4550 3584 
Q 5097 3584 5394 3201 
Q 5691 2819 5691 2113 
L 5691 0 
L 5113 0 
L 5113 2094 
Q 5113 2597 4934 2840 
Q 4756 3084 4391 3084 
Q 3944 3084 3684 2787 
Q 3425 2491 3425 1978 
L 3425 0 
L 2847 0 
L 2847 2094 
Q 2847 2600 2669 2842 
Q 2491 3084 2119 3084 
Q 1678 3084 1418 2786 
Q 1159 2488 1159 1978 
L 1159 0 
L 581 0 
L 581 3500 
L 1159 3500 
L 1159 2956 
Q 1356 3278 1631 3431 
Q 1906 3584 2284 3584 
Q 2666 3584 2933 3390 
Q 3200 3197 3328 2828 
z
" transform="scale(0.015625)"/>
     </defs>
     <use xlink:href="#DejaVuSans-53"/>
     <use xlink:href="#DejaVuSans-68" transform="translate(63.476562 0)"/>
     <use xlink:href="#DejaVuSans-6f" transform="translate(126.855469 0)"/>
     <use xlink:href="#DejaVuSans-72" transform="translate(188.037109 0)"/>
     <use xlink:href="#DejaVuSans-74" transform="translate(229.150391 0)"/>
     <use xlink:href="#DejaVuSans-61" transform="translate(268.359375 0)"/>
     <use xlink:href="#DejaVuSans-67" transform="translate(329.638672 0)"/>
     <use xlink:href="#DejaVuSans-65" transform="translate(393.115234 0)"/>
     <use xlink:href="#DejaVuSans-20" transform="translate(454.638672 0)"/>
     <use xlink:href="#DejaVuSans-6f" transform="translate(486.425781 0)"/>
     <use xlink:href="#DejaVuSans-6e" transform="translate(547.607422 0)"/>
     <use xlink:href="#DejaVuSans-73" transform="translate(610.986328 0)"/>
     <use xlink:href="#DejaVuSans-65" transform="translate(663.085938 0)"/>
     <use xlink:href="#DejaVuSans-74" transform="translate(724.609375 0)"/>
     <use xlink:href="#DejaVuSans-73" transform="translate(763.818359 0)"/>
     <use xlink:href="#DejaVuSans-20" transform="translate(815.917969 0)"/>
     <use xlink:href="#DejaVuSans-61" transform="translate(847.705078 0)"/>
     <use xlink:href="#DejaVuSans-6e" transform="translate(908.984375 0)"/>
     <use xlink:href="#DejaVuSans-64" transform="translate(972.363281 0)"/>
     <use xlink:href="#DejaVuSans-20" transform="translate(1035.839844 0)"/>
     <use xlink:href="#DejaVuSans-6f" transform="translate(1067.626953 0)"/>
     <use xlink:href="#DejaVuSans-66" transform="translate(1128.808594 0)"/>
     <use xlink:href="#DejaVuSans-66" transform="translate(1164.013672 0)"/>
     <use xlink:href="#DejaVuSans-73" transform="translate(1199.21875 0)"/>
     <use xlink:href="#DejaVuSans-65" transform="translate(1251.318359 0)"/>
     <use xlink:href="#DejaVuSans-74" transform="translate(1312.841797 0)"/>
     <use xlink:href="#DejaVuSans-73" transform="translate(1352.050781 0)"/>
     <use xlink:href="#DejaVuSans-20" transform="translate(1404.150391 0)"/>
     <use xlink:href="#DejaVuSans-62" transform="translate(1435.9375 0)"/>
     <use xlink:href="#DejaVuSans-79" transform="translate(1499.414062 0)"/>
     <use xlink:href="#DejaVuSans-20" transform="translate(1558.59375 0)"/>
     <use xlink:href="#DejaVuSans-63" transform="translate(1590.380859 0)"/>
     <use xlink:href="#DejaVuSans-61" transform="translate(1645.361328 0)"/>
     <use xlink:href="#DejaVuSans-6c" transform="translate(1706.640625 0)"/>
     <use xlink:href="#DejaVuSans-65" transform="translate(1734.423828 0)"/>
     <use xlink:href="#DejaVuSans-6e" transform="translate(1795.947266 0)"/>
     <use xlink:href="#DejaVuSans-64" transform="translate(1859.326172 0)"/>
     <use xlink:href="#DejaVuSans-61" transform="translate(1922.802734 0)"/>
     <use xlink:href="#DejaVuSans-72" transform="translate(1984.082031 0)"/>
     <use xlink:href="#DejaVuSans-20" transform="translate(2025.195312 0)"/>
     <use xlink:href="#DejaVuSans-6d" transform="translate(2056.982422 0)"/>
     <use xlink:href="#DejaVuSans-6f" transform="translate(2154.394531 0)"/>
     <use xlink:href="#DejaVuSans-6e" transform="translate(2215.576172 0)"/>
     <use xlink:href="#DejaVuSans-74" transform="translate(2278.955078 0)"/>
     <use xlink:href="#DejaVuSans-68" transform="translate(2318.164062 0)"/>
    </g>
   </g>
   <g id="legend_1">
    <g id="patch_7">
     <path d="M 659.904687 64.23625 
L 774.2 64.23625 
Q 776.2 64.23625 776.2 62.23625 
L 776.2 33.88 
Q 776.2 31.88 774.2 31.88 
L 659.904687 31.88 
Q 657.904687 31.88 657.904687 33.88 
L 657.904687 62.23625 
Q 657.904687 64.23625 659.904687 64.23625 
z
" style="fill: #ffffff; opacity: 0.8; stroke: #cccccc; stroke-linejoin: miter"/>
    </g>
    <g id="line2d_15">
     <path d="M 661.904687 39.978437 
L 671.904687 39.978437 
L 681.904687 39.978437 
" style="fill: none; stroke: #a55a3b; stroke-width: 1.5; stroke-linecap: square"/>
     <g>
      <use xlink:href="#mee370d820a" x="671.904687" y="39.978437" style="fill: #a55a3b; stroke: #a55a3b"/>
     </g>
    </g>
    <g id="text_16">
     <!-- Shortage onsets -->
     <g transform="translate(689.904687 43.478437) scale(0.1 -0.1)">
      <use xlink:href="#DejaVuSans-53"/>
      <use xlink:href="#DejaVuSans-68" transform="translate(63.476562 0)"/>
      <use xlink:href="#DejaVuSans-6f" transform="translate(126.855469 0)"/>
      <use xlink:href="#DejaVuSans-72" transform="translate(188.037109 0)"/>
      <use xlink:href="#DejaVuSans-74" transform="translate(229.150391 0)"/>
      <use xlink:href="#DejaVuSans-61" transform="translate(268.359375 0)"/>
      <use xlink:href="#DejaVuSans-67" transform="translate(329.638672 0)"/>
      <use xlink:href="#DejaVuSans-65" transform="translate(393.115234 0)"/>
      <use xlink:href="#DejaVuSans-20" transform="translate(454.638672 0)"/>
      <use xlink:href="#DejaVuSans-6f" transform="translate(486.425781 0)"/>
      <use xlink:href="#DejaVuSans-6e" transform="translate(547.607422 0)"/>
      <use xlink:href="#DejaVuSans-73" transform="translate(610.986328 0)"/>
      <use xlink:href="#DejaVuSans-65" transform="translate(663.085938 0)"/>
      <use xlink:href="#DejaVuSans-74" transform="translate(724.609375 0)"/>
      <use xlink:href="#DejaVuSans-73" transform="translate(763.818359 0)"/>
     </g>
    </g>
    <g id="line2d_16">
     <path d="M 661.904687 54.656563 
L 671.904687 54.656563 
L 681.904687 54.656563 
" style="fill: none; stroke: #3b6ea5; stroke-width: 1.5; stroke-linecap: square"/>
     <g>
      <use xlink:href="#mbbdcf7626d" x="671.904687" y="54.656563" style="fill: #3b6ea5; stroke: #3b6ea5; stroke-linejoin: miter"/>
     </g>
    </g>
    <g id="text_17">
     <!-- Shortage offsets -->
     <g transform="translate(689.904687 58.156563) scale(0.1 -0.1)">
      <use xlink:href="#DejaVuSans-53"/>
      <use xlink:href="#DejaVuSans-68" transform="translate(63.476562 0)"/>
      <use xlink:href="#DejaVuSans-6f" transform="translate(126.855469 0)"/>
      <use xlink:href="#DejaVuSans-72" transform="translate(188.037109 0)"/>
      <use xlink:href="#DejaVuSans-74" transform="translate(229.150391 0)"/>
      <use xlink:href="#DejaVuSans-61" transform="translate(268.359375 0)"/>
      <use xlink:href="#DejaVuSans-67" transform="translate(329.638672 0)"/>
      <use xlink:href="#DejaVuSans-65" transform="translate(393.115234 0)"/>
      <use xlink:href="#DejaVuSans-20" transform="translate(454.638672 0)"/>
      <use xlink:href="#DejaVuSans-6f" transform="translate(486.425781 0)"/>
      <use xlink:href="#DejaVuSans-66" transform="translate(547.607422 0)"/>
      <use xlink:href="#DejaVuSans-66" transform="translate(582.8125 0)"/>
      <use xlink:href="#DejaVuSans-73" transform="translate(618.017578 0)"/>
      <use xlink:href="#DejaVuSans-65" transform="translate(670.117188 0)"/>
      <use xlink:href="#DejaVuSans-74" transform="translate(731.640625 0)"/>
      <use xlink:href="#DejaVuSans-73" transform="translate(770.849609 0)"/>
     </g>
    </g>
   </g>
  </g>
 </g>
 <defs>
  <clipPath id="p0ae4126eea">
   <rect x="44.57" y="26.88" width="736.63" height="291.16"/>
  </clipPath>
 </defs>
</svg>
